<svg xmlns="http://www.w3.org/2000/svg" width="1280" height="720" viewBox="0 0 1280 720" role="img" aria-labelledby="title desc">
  <title id="title">Feedforward TE Architecture Diagram</title>
  <desc id="desc">Architecture-style diagram of a feedforward multilayer perceptron for transmission-error prediction.</desc>
  <defs>
    <linearGradient id="canvas_header" x1="0" y1="0" x2="1" y2="1">
      <stop offset="0%" stop-color="#35478C"/>
      <stop offset="100%" stop-color="#16193B"/>
    </linearGradient>
    <linearGradient id="card_header" x1="0" y1="0" x2="1" y2="1">
      <stop offset="0%" stop-color="#F6FAFF"/>
      <stop offset="100%" stop-color="#EEF5FF"/>
    </linearGradient>
    <marker id="arrow_head" markerWidth="10" markerHeight="10" refX="9" refY="5" orient="auto" markerUnits="strokeWidth">
      <path d="M0,0 L10,5 L0,10 Z" fill="#4E7AC7"/>
    </marker>
    <style>
      .canvas-title { font: 700 32px 'Segoe UI', Arial, sans-serif; fill: #ffffff; }
      .canvas-subtitle { font: 500 18px 'Segoe UI', Arial, sans-serif; fill: #dfeaff; }
      .card-title { font: 700 18px 'Segoe UI', Arial, sans-serif; fill: #16193B; }
      .card-text { font: 500 15px 'Segoe UI', Arial, sans-serif; fill: #31466E; }
      .card-note { font: 600 14px 'Segoe UI', Arial, sans-serif; fill: #4E7AC7; }
      .label { font: 700 16px 'Segoe UI', Arial, sans-serif; fill: #16193B; }
      .tiny { font: 600 14px 'Segoe UI', Arial, sans-serif; fill: #4E7AC7; }
      .node-label { font: 700 12px 'Segoe UI', Arial, sans-serif; fill: #16193B; }
      .node-small-label { font: 700 11px 'Segoe UI', Arial, sans-serif; fill: #16193B; }
      .flow-row-text { font: 600 14px 'Segoe UI', Arial, sans-serif; fill: #31466E; }
    </style>
  </defs>
  <rect x="0" y="0" width="1280" height="720" rx="28" fill="#FFFFFF"/>
  <rect x="30" y="26" width="1220" height="92" rx="20" fill="url(#canvas_header)"/>
  <text x="64" y="68" class="canvas-title">Feedforward Network Structure</text>
  <text x="64" y="98" class="canvas-subtitle">Dense point-wise network with explicit neuron connectivity</text>
  <rect x="58" y="168" width="194" height="360" rx="18" fill="#FFFFFF" stroke="#ADD5F7" stroke-width="3"/>
  <path d="M76, 168 H234 Q252, 168 252, 186 V214 H58 V186 Q58, 168 76, 168 Z" fill="url(#card_header)"/>
  <line x1="58" y1="214" x2="252" y2="214" stroke="#ADD5F7" stroke-width="2"/>
  <text x="155" y="199" text-anchor="middle" class="card-title">Inputs</text>
  <text x="155" y="322.0" text-anchor="middle" class="card-text">Angle</text>
  <text x="155" y="342.0" text-anchor="middle" class="card-text">Speed</text>
  <text x="155" y="362.0" text-anchor="middle" class="card-text">Torque</text>
  <text x="155" y="382.0" text-anchor="middle" class="card-text">Temperature</text>
  <text x="155" y="402.0" text-anchor="middle" class="card-text">Direction</text>
  <text x="155" y="426.0" text-anchor="middle" class="card-note">Five normalized scalar features</text>
  <rect x="1044" y="272" width="146" height="132" rx="18" fill="#FFFFFF" stroke="#ADD5F7" stroke-width="3"/>
  <path d="M1062, 272 H1172 Q1190, 272 1190, 290 V318 H1044 V290 Q1044, 272 1062, 272 Z" fill="url(#card_header)"/>
  <line x1="1044" y1="318" x2="1190" y2="318" stroke="#ADD5F7" stroke-width="2"/>
  <text x="1117" y="303" text-anchor="middle" class="card-title">Output</text>
  <text x="1117" y="365.0" text-anchor="middle" class="card-text">Transmission error</text>
  <text x="292" y="152" class="label">Example hidden layout: 5 to 4 to 4 to 3 to 1</text>
  <text x="292" y="176" class="tiny">The actual hidden width is configured by the training YAML.</text>
  <circle cx="322" cy="222" r="17" fill="#F7FBFF" stroke="#ADD5F7" stroke-width="2"/>
  <text x="322" y="226" text-anchor="middle" class="node-label">a</text>
  <circle cx="322" cy="284" r="17" fill="#F7FBFF" stroke="#ADD5F7" stroke-width="2"/>
  <text x="322" y="288" text-anchor="middle" class="node-label">s</text>
  <circle cx="322" cy="346" r="17" fill="#F7FBFF" stroke="#ADD5F7" stroke-width="2"/>
  <text x="322" y="350" text-anchor="middle" class="node-label">q</text>
  <circle cx="322" cy="408" r="17" fill="#F7FBFF" stroke="#ADD5F7" stroke-width="2"/>
  <text x="322" y="412" text-anchor="middle" class="node-label">t</text>
  <circle cx="322" cy="470" r="17" fill="#F7FBFF" stroke="#ADD5F7" stroke-width="2"/>
  <text x="322" y="474" text-anchor="middle" class="node-label">d</text>
  <circle cx="510" cy="253" r="17" fill="#F7FBFF" stroke="#ADD5F7" stroke-width="2"/>
  <text x="510" y="257" text-anchor="middle" class="node-label">h1</text>
  <circle cx="510" cy="315" r="17" fill="#F7FBFF" stroke="#ADD5F7" stroke-width="2"/>
  <text x="510" y="319" text-anchor="middle" class="node-label">h2</text>
  <circle cx="510" cy="377" r="17" fill="#F7FBFF" stroke="#ADD5F7" stroke-width="2"/>
  <text x="510" y="381" text-anchor="middle" class="node-label">h3</text>
  <circle cx="510" cy="439" r="17" fill="#F7FBFF" stroke="#ADD5F7" stroke-width="2"/>
  <text x="510" y="443" text-anchor="middle" class="node-label">h4</text>
  <circle cx="698" cy="253" r="17" fill="#F7FBFF" stroke="#ADD5F7" stroke-width="2"/>
  <text x="698" y="257" text-anchor="middle" class="node-label">h1</text>
  <circle cx="698" cy="315" r="17" fill="#F7FBFF" stroke="#ADD5F7" stroke-width="2"/>
  <text x="698" y="319" text-anchor="middle" class="node-label">h2</text>
  <circle cx="698" cy="377" r="17" fill="#F7FBFF" stroke="#ADD5F7" stroke-width="2"/>
  <text x="698" y="381" text-anchor="middle" class="node-label">h3</text>
  <circle cx="698" cy="439" r="17" fill="#F7FBFF" stroke="#ADD5F7" stroke-width="2"/>
  <text x="698" y="443" text-anchor="middle" class="node-label">h4</text>
  <circle cx="886" cy="284" r="17" fill="#F7FBFF" stroke="#ADD5F7" stroke-width="2"/>
  <text x="886" y="288" text-anchor="middle" class="node-label">h1</text>
  <circle cx="886" cy="346" r="17" fill="#F7FBFF" stroke="#ADD5F7" stroke-width="2"/>
  <text x="886" y="350" text-anchor="middle" class="node-label">h2</text>
  <circle cx="886" cy="408" r="17" fill="#F7FBFF" stroke="#ADD5F7" stroke-width="2"/>
  <text x="886" y="412" text-anchor="middle" class="node-label">h3</text>
  <line x1="338.8" y1="224.8" x2="493.2" y2="250.2" stroke="#C8DCF8" stroke-width="1.5" marker-end="url(#arrow_head)"/>
  <line x1="337.2" y1="229.5" x2="494.8" y2="307.5" stroke="#C8DCF8" stroke-width="1.5" marker-end="url(#arrow_head)"/>
  <line x1="335.1" y1="232.8" x2="496.9" y2="366.2" stroke="#C8DCF8" stroke-width="1.5" marker-end="url(#arrow_head)"/>
  <line x1="333.1" y1="234.8" x2="498.9" y2="426.2" stroke="#C8DCF8" stroke-width="1.5" marker-end="url(#arrow_head)"/>
  <line x1="338.8" y1="281.2" x2="493.2" y2="255.8" stroke="#C8DCF8" stroke-width="1.5" marker-end="url(#arrow_head)"/>
  <line x1="338.8" y1="286.8" x2="493.2" y2="312.2" stroke="#C8DCF8" stroke-width="1.5" marker-end="url(#arrow_head)"/>
  <line x1="337.2" y1="291.5" x2="494.8" y2="369.5" stroke="#C8DCF8" stroke-width="1.5" marker-end="url(#arrow_head)"/>
  <line x1="335.1" y1="294.8" x2="496.9" y2="428.2" stroke="#C8DCF8" stroke-width="1.5" marker-end="url(#arrow_head)"/>
  <line x1="337.2" y1="338.5" x2="494.8" y2="260.5" stroke="#C8DCF8" stroke-width="1.5" marker-end="url(#arrow_head)"/>
  <line x1="338.8" y1="343.2" x2="493.2" y2="317.8" stroke="#C8DCF8" stroke-width="1.5" marker-end="url(#arrow_head)"/>
  <line x1="338.8" y1="348.8" x2="493.2" y2="374.2" stroke="#C8DCF8" stroke-width="1.5" marker-end="url(#arrow_head)"/>
  <line x1="337.2" y1="353.5" x2="494.8" y2="431.5" stroke="#C8DCF8" stroke-width="1.5" marker-end="url(#arrow_head)"/>
  <line x1="335.1" y1="397.2" x2="496.9" y2="263.8" stroke="#C8DCF8" stroke-width="1.5" marker-end="url(#arrow_head)"/>
  <line x1="337.2" y1="400.5" x2="494.8" y2="322.5" stroke="#C8DCF8" stroke-width="1.5" marker-end="url(#arrow_head)"/>
  <line x1="338.8" y1="405.2" x2="493.2" y2="379.8" stroke="#C8DCF8" stroke-width="1.5" marker-end="url(#arrow_head)"/>
  <line x1="338.8" y1="410.8" x2="493.2" y2="436.2" stroke="#C8DCF8" stroke-width="1.5" marker-end="url(#arrow_head)"/>
  <line x1="333.1" y1="457.2" x2="498.9" y2="265.8" stroke="#C8DCF8" stroke-width="1.5" marker-end="url(#arrow_head)"/>
  <line x1="335.1" y1="459.2" x2="496.9" y2="325.8" stroke="#C8DCF8" stroke-width="1.5" marker-end="url(#arrow_head)"/>
  <line x1="337.2" y1="462.5" x2="494.8" y2="384.5" stroke="#C8DCF8" stroke-width="1.5" marker-end="url(#arrow_head)"/>
  <line x1="338.8" y1="467.2" x2="493.2" y2="441.8" stroke="#C8DCF8" stroke-width="1.5" marker-end="url(#arrow_head)"/>
  <line x1="527.0" y1="253.0" x2="681.0" y2="253.0" stroke="#C8DCF8" stroke-width="1.5" marker-end="url(#arrow_head)"/>
  <line x1="526.1" y1="258.3" x2="681.9" y2="309.7" stroke="#C8DCF8" stroke-width="1.5" marker-end="url(#arrow_head)"/>
  <line x1="524.2" y1="262.4" x2="683.8" y2="367.6" stroke="#C8DCF8" stroke-width="1.5" marker-end="url(#arrow_head)"/>
  <line x1="522.1" y1="265.0" x2="685.9" y2="427.0" stroke="#C8DCF8" stroke-width="1.5" marker-end="url(#arrow_head)"/>
  <line x1="526.1" y1="309.7" x2="681.9" y2="258.3" stroke="#C8DCF8" stroke-width="1.5" marker-end="url(#arrow_head)"/>
  <line x1="527.0" y1="315.0" x2="681.0" y2="315.0" stroke="#C8DCF8" stroke-width="1.5" marker-end="url(#arrow_head)"/>
  <line x1="526.1" y1="320.3" x2="681.9" y2="371.7" stroke="#C8DCF8" stroke-width="1.5" marker-end="url(#arrow_head)"/>
  <line x1="524.2" y1="324.4" x2="683.8" y2="429.6" stroke="#C8DCF8" stroke-width="1.5" marker-end="url(#arrow_head)"/>
  <line x1="524.2" y1="367.6" x2="683.8" y2="262.4" stroke="#C8DCF8" stroke-width="1.5" marker-end="url(#arrow_head)"/>
  <line x1="526.1" y1="371.7" x2="681.9" y2="320.3" stroke="#C8DCF8" stroke-width="1.5" marker-end="url(#arrow_head)"/>
  <line x1="527.0" y1="377.0" x2="681.0" y2="377.0" stroke="#C8DCF8" stroke-width="1.5" marker-end="url(#arrow_head)"/>
  <line x1="526.1" y1="382.3" x2="681.9" y2="433.7" stroke="#C8DCF8" stroke-width="1.5" marker-end="url(#arrow_head)"/>
  <line x1="522.1" y1="427.0" x2="685.9" y2="265.0" stroke="#C8DCF8" stroke-width="1.5" marker-end="url(#arrow_head)"/>
  <line x1="524.2" y1="429.6" x2="683.8" y2="324.4" stroke="#C8DCF8" stroke-width="1.5" marker-end="url(#arrow_head)"/>
  <line x1="526.1" y1="433.7" x2="681.9" y2="382.3" stroke="#C8DCF8" stroke-width="1.5" marker-end="url(#arrow_head)"/>
  <line x1="527.0" y1="439.0" x2="681.0" y2="439.0" stroke="#C8DCF8" stroke-width="1.5" marker-end="url(#arrow_head)"/>
  <line x1="714.8" y1="255.8" x2="869.2" y2="281.2" stroke="#C8DCF8" stroke-width="1.5" marker-end="url(#arrow_head)"/>
  <line x1="713.2" y1="260.5" x2="870.8" y2="338.5" stroke="#C8DCF8" stroke-width="1.5" marker-end="url(#arrow_head)"/>
  <line x1="711.1" y1="263.8" x2="872.9" y2="397.2" stroke="#C8DCF8" stroke-width="1.5" marker-end="url(#arrow_head)"/>
  <line x1="714.8" y1="312.2" x2="869.2" y2="286.8" stroke="#C8DCF8" stroke-width="1.5" marker-end="url(#arrow_head)"/>
  <line x1="714.8" y1="317.8" x2="869.2" y2="343.2" stroke="#C8DCF8" stroke-width="1.5" marker-end="url(#arrow_head)"/>
  <line x1="713.2" y1="322.5" x2="870.8" y2="400.5" stroke="#C8DCF8" stroke-width="1.5" marker-end="url(#arrow_head)"/>
  <line x1="713.2" y1="369.5" x2="870.8" y2="291.5" stroke="#C8DCF8" stroke-width="1.5" marker-end="url(#arrow_head)"/>
  <line x1="714.8" y1="374.2" x2="869.2" y2="348.8" stroke="#C8DCF8" stroke-width="1.5" marker-end="url(#arrow_head)"/>
  <line x1="714.8" y1="379.8" x2="869.2" y2="405.2" stroke="#C8DCF8" stroke-width="1.5" marker-end="url(#arrow_head)"/>
  <line x1="711.1" y1="428.2" x2="872.9" y2="294.8" stroke="#C8DCF8" stroke-width="1.5" marker-end="url(#arrow_head)"/>
  <line x1="713.2" y1="431.5" x2="870.8" y2="353.5" stroke="#C8DCF8" stroke-width="1.5" marker-end="url(#arrow_head)"/>
  <line x1="714.8" y1="436.2" x2="869.2" y2="410.8" stroke="#C8DCF8" stroke-width="1.5" marker-end="url(#arrow_head)"/>
  <line x1="902.1" y1="289.5" x2="1044.0" y2="338.0" stroke="#BFD8FA" stroke-width="1.8" marker-end="url(#arrow_head)"/>
  <line x1="903.0" y1="345.1" x2="1044.0" y2="338.0" stroke="#BFD8FA" stroke-width="1.8" marker-end="url(#arrow_head)"/>
  <line x1="901.5" y1="401.1" x2="1044.0" y2="338.0" stroke="#BFD8FA" stroke-width="1.8" marker-end="url(#arrow_head)"/>
  <line x1="252.0" y1="346.0" x2="290.0" y2="346.0" stroke="#4E7AC7" stroke-width="3.5" marker-end="url(#arrow_head)"/>
  <line x1="1030.0" y1="338.0" x2="1044.0" y2="338.0" stroke="#4E7AC7" stroke-width="3.5" marker-end="url(#arrow_head)"/>

</svg>
