<svg xmlns="http://www.w3.org/2000/svg" width="1280" height="720" viewBox="0 0 1280 720" role="img" aria-labelledby="title desc">
  <title id="title">Periodic Feature Network TE Architecture Diagram</title>
  <desc id="desc">Architecture-style diagram of periodic feature expansion followed by a dense neural network.</desc>
  <defs>
    <linearGradient id="canvas_header" x1="0" y1="0" x2="1" y2="1">
      <stop offset="0%" stop-color="#35478C"/>
      <stop offset="100%" stop-color="#16193B"/>
    </linearGradient>
    <linearGradient id="card_header" x1="0" y1="0" x2="1" y2="1">
      <stop offset="0%" stop-color="#F6FAFF"/>
      <stop offset="100%" stop-color="#EEF5FF"/>
    </linearGradient>
    <marker id="arrow_head" markerWidth="11" markerHeight="11" refX="9.4" refY="5.5" orient="auto" markerUnits="strokeWidth">
      <path d="M0,0 L11,5.5 L0,11 Z" fill="#4E7AC7"/>
    </marker>
    <style>
      .canvas-title { font: 700 32px 'Segoe UI', Arial, sans-serif; fill: #ffffff; }
      .canvas-subtitle { font: 500 18px 'Segoe UI', Arial, sans-serif; fill: #dfeaff; }
      .card-title { font: 700 18px 'Segoe UI', Arial, sans-serif; fill: #16193B; }
      .card-text { font: 500 15px 'Segoe UI', Arial, sans-serif; fill: #31466E; }
      .card-note { font: 600 14px 'Segoe UI', Arial, sans-serif; fill: #4E7AC7; }
      .label { font: 700 16px 'Segoe UI', Arial, sans-serif; fill: #16193B; }
      .tiny { font: 600 14px 'Segoe UI', Arial, sans-serif; fill: #4E7AC7; }
      .node-label { font: 700 12px 'Segoe UI', Arial, sans-serif; fill: #16193B; }
      .node-small-label { font: 700 11px 'Segoe UI', Arial, sans-serif; fill: #16193B; }
      .flow-row-text { font: 600 14px 'Segoe UI', Arial, sans-serif; fill: #31466E; }
    </style>
  </defs>
  <rect x="0" y="0" width="1280" height="720" rx="28" fill="#FFFFFF"/>
  <rect x="30" y="26" width="1220" height="92" rx="20" fill="url(#canvas_header)"/>
  <text x="64" y="68" class="canvas-title">Periodic Feature Network Structure</text>
  <text x="64" y="98" class="canvas-subtitle">Feature-expansion front end plus dense neural backbone</text>
  <g transform="translate(0,67.0)">
  <rect x="52" y="272" width="164" height="116" rx="18" fill="#FFFFFF" stroke="#ADD5F7" stroke-width="3"/>
  <path d="M70, 272 H198 Q216, 272 216, 290 V318 H52 V290 Q52, 272 70, 272 Z" fill="url(#card_header)"/>
  <line x1="52" y1="318" x2="216" y2="318" stroke="#ADD5F7" stroke-width="2"/>
  <text x="134" y="303" text-anchor="middle" class="card-title">Angle</text>
  <text x="134.0" y="357.0" text-anchor="middle" class="card-text">Theta</text>
  <rect x="254" y="142" width="252" height="332" rx="18" fill="#FFFFFF" stroke="#7FB2F0" stroke-width="3"/>
  <path d="M272, 142 H488 Q506, 142 506, 160 V188 H254 V160 Q254, 142 272, 142 Z" fill="url(#card_header)"/>
  <line x1="254" y1="188" x2="506" y2="188" stroke="#7FB2F0" stroke-width="2"/>
  <text x="380" y="173" text-anchor="middle" class="card-title">Feature Expansion</text>
  <text x="380.0" y="259.0" text-anchor="middle" class="card-text">sin(theta)</text>
  <text x="380.0" y="279.0" text-anchor="middle" class="card-text">cos(theta)</text>
  <text x="380.0" y="299.0" text-anchor="middle" class="card-text">sin(2 theta)</text>
  <text x="380.0" y="319.0" text-anchor="middle" class="card-text">cos(2 theta)</text>
  <text x="380.0" y="339.0" text-anchor="middle" class="card-text">Higher-order channels</text>
  <text x="380.0" y="359.0" text-anchor="middle" class="card-text">Optional raw angle</text>
  <text x="380.0" y="391.0" text-anchor="middle" class="card-note">2K or 2K + 1 periodic</text>
  <text x="380.0" y="409.0" text-anchor="middle" class="card-note">channels</text>
  <rect x="548" y="326" width="198" height="198" rx="18" fill="#FFFFFF" stroke="#ADD5F7" stroke-width="3"/>
  <path d="M566, 326 H728 Q746, 326 746, 344 V372 H548 V344 Q548, 326 566, 326 Z" fill="url(#card_header)"/>
  <line x1="548" y1="372" x2="746" y2="372" stroke="#ADD5F7" stroke-width="2"/>
  <text x="647" y="357" text-anchor="middle" class="card-title">Conditions</text>
  <text x="647.0" y="406.0" text-anchor="middle" class="card-text">Speed</text>
  <text x="647.0" y="426.0" text-anchor="middle" class="card-text">Torque</text>
  <text x="647.0" y="446.0" text-anchor="middle" class="card-text">Temperature</text>
  <text x="647.0" y="466.0" text-anchor="middle" class="card-text">Direction</text>
  <text x="647.0" y="498.0" text-anchor="middle" class="card-note">Normalized inputs</text>
  <rect x="790" y="266" width="176" height="128" rx="18" fill="#FFFFFF" stroke="#ADD5F7" stroke-width="3"/>
  <path d="M808, 266 H948 Q966, 266 966, 284 V312 H790 V284 Q790, 266 808, 266 Z" fill="url(#card_header)"/>
  <line x1="790" y1="312" x2="966" y2="312" stroke="#ADD5F7" stroke-width="2"/>
  <text x="878" y="297" text-anchor="middle" class="card-title">Concat</text>
  <text x="878.0" y="347.0" text-anchor="middle" class="card-text">Expanded feature</text>
  <text x="878.0" y="367.0" text-anchor="middle" class="card-text">vector</text>
  <circle cx="1020" cy="233" r="15" fill="#F7FBFF" stroke="#ADD5F7" stroke-width="2"/>
  <text x="1020" y="237" text-anchor="middle" class="node-label">h1</text>
  <circle cx="1020" cy="299" r="15" fill="#F7FBFF" stroke="#ADD5F7" stroke-width="2"/>
  <text x="1020" y="303" text-anchor="middle" class="node-label">h2</text>
  <circle cx="1020" cy="365" r="15" fill="#F7FBFF" stroke="#ADD5F7" stroke-width="2"/>
  <text x="1020" y="369" text-anchor="middle" class="node-label">h3</text>
  <circle cx="1020" cy="431" r="15" fill="#F7FBFF" stroke="#ADD5F7" stroke-width="2"/>
  <text x="1020" y="435" text-anchor="middle" class="node-label">h4</text>
  <circle cx="1130" cy="266" r="15" fill="#F7FBFF" stroke="#ADD5F7" stroke-width="2"/>
  <text x="1130" y="270" text-anchor="middle" class="node-label">h1</text>
  <circle cx="1130" cy="332" r="15" fill="#F7FBFF" stroke="#ADD5F7" stroke-width="2"/>
  <text x="1130" y="336" text-anchor="middle" class="node-label">h2</text>
  <circle cx="1130" cy="398" r="15" fill="#F7FBFF" stroke="#ADD5F7" stroke-width="2"/>
  <text x="1130" y="402" text-anchor="middle" class="node-label">h3</text>
  <circle cx="1230" cy="332" r="15" fill="#F7FBFF" stroke="#ADD5F7" stroke-width="2"/>
  <text x="1230" y="336" text-anchor="middle" class="node-label">TE</text>
  <line x1="1033.4" y1="226.3" x2="1116.6" y2="272.7" stroke="#C8DCF8" stroke-width="1.4" stroke-linecap="round" marker-end="url(#arrow_head)"/>
  <line x1="1035.0" y1="233.0" x2="1116.6" y2="338.7" stroke="#C8DCF8" stroke-width="1.4" stroke-linecap="round" marker-end="url(#arrow_head)"/>
  <line x1="1033.4" y1="239.7" x2="1116.6" y2="404.7" stroke="#C8DCF8" stroke-width="1.4" stroke-linecap="round" marker-end="url(#arrow_head)"/>
  <line x1="1033.4" y1="292.3" x2="1115.2" y2="268.3" stroke="#C8DCF8" stroke-width="1.4" stroke-linecap="round" marker-end="url(#arrow_head)"/>
  <line x1="1035.0" y1="299.0" x2="1115.2" y2="334.3" stroke="#C8DCF8" stroke-width="1.4" stroke-linecap="round" marker-end="url(#arrow_head)"/>
  <line x1="1033.4" y1="305.7" x2="1115.2" y2="400.3" stroke="#C8DCF8" stroke-width="1.4" stroke-linecap="round" marker-end="url(#arrow_head)"/>
  <line x1="1033.4" y1="358.3" x2="1115.2" y2="263.7" stroke="#C8DCF8" stroke-width="1.4" stroke-linecap="round" marker-end="url(#arrow_head)"/>
  <line x1="1035.0" y1="365.0" x2="1115.2" y2="329.7" stroke="#C8DCF8" stroke-width="1.4" stroke-linecap="round" marker-end="url(#arrow_head)"/>
  <line x1="1033.4" y1="371.7" x2="1115.2" y2="395.7" stroke="#C8DCF8" stroke-width="1.4" stroke-linecap="round" marker-end="url(#arrow_head)"/>
  <line x1="1033.4" y1="424.3" x2="1116.6" y2="259.3" stroke="#C8DCF8" stroke-width="1.4" stroke-linecap="round" marker-end="url(#arrow_head)"/>
  <line x1="1035.0" y1="431.0" x2="1116.6" y2="325.3" stroke="#C8DCF8" stroke-width="1.4" stroke-linecap="round" marker-end="url(#arrow_head)"/>
  <line x1="1033.4" y1="437.7" x2="1116.6" y2="391.3" stroke="#C8DCF8" stroke-width="1.4" stroke-linecap="round" marker-end="url(#arrow_head)"/>
  <line x1="1145.0" y1="266.0" x2="1216.6" y2="338.7" stroke="#C8DCF8" stroke-width="1.4" stroke-linecap="round" marker-end="url(#arrow_head)"/>
  <line x1="1145.0" y1="332.0" x2="1215.0" y2="332.0" stroke="#C8DCF8" stroke-width="1.4" stroke-linecap="round" marker-end="url(#arrow_head)"/>
  <line x1="1145.0" y1="398.0" x2="1216.6" y2="325.3" stroke="#C8DCF8" stroke-width="1.4" stroke-linecap="round" marker-end="url(#arrow_head)"/>
  <line x1="216.0" y1="330.0" x2="254.0" y2="330.0" stroke="#4E7AC7" stroke-width="3.0" stroke-linecap="round" marker-end="url(#arrow_head)"/>
  <path d="M506.0,266.0 L676.0,266.0 L676.0,214.0 L790.0,214.0 L790.0,304.0" fill="none" stroke="#4E7AC7" stroke-width="2.8" stroke-linejoin="round" stroke-linecap="round" marker-end="url(#arrow_head)"/>
  <line x1="746.0" y1="424.0" x2="790.0" y2="356.0" stroke="#4E7AC7" stroke-width="2.8" stroke-linecap="round" marker-end="url(#arrow_head)"/>
  <line x1="966.0" y1="332.0" x2="1005.0" y2="332.0" stroke="#4E7AC7" stroke-width="3.0" stroke-linecap="round" marker-end="url(#arrow_head)"/>
  <text x="286" y="556" class="tiny">Periodic structure is handcrafted in front. Nonlinear interaction learning happens in the MLP.</text>
  </g>

</svg>
