<svg xmlns="http://www.w3.org/2000/svg" width="1280" height="720" viewBox="0 0 1280 720" role="img" aria-labelledby="title desc">
  <title id="title">Residual Harmonic Network TE Architecture Diagram</title>
  <desc id="desc">Architecture-style diagram of the residual harmonic network with structured and residual branches.</desc>
  <defs>
    <linearGradient id="canvas_header" x1="0" y1="0" x2="1" y2="1">
      <stop offset="0%" stop-color="#35478C"/>
      <stop offset="100%" stop-color="#16193B"/>
    </linearGradient>
    <linearGradient id="card_header" x1="0" y1="0" x2="1" y2="1">
      <stop offset="0%" stop-color="#F6FAFF"/>
      <stop offset="100%" stop-color="#EEF5FF"/>
    </linearGradient>
    <marker id="arrow_head" markerWidth="11" markerHeight="11" refX="9.4" refY="5.5" orient="auto" markerUnits="strokeWidth">
      <path d="M0,0 L11,5.5 L0,11 Z" fill="#4E7AC7"/>
    </marker>
    <style>
      .canvas-title { font: 700 32px 'Segoe UI', Arial, sans-serif; fill: #ffffff; }
      .canvas-subtitle { font: 500 18px 'Segoe UI', Arial, sans-serif; fill: #dfeaff; }
      .card-title { font: 700 18px 'Segoe UI', Arial, sans-serif; fill: #16193B; }
      .card-text { font: 500 15px 'Segoe UI', Arial, sans-serif; fill: #31466E; }
      .card-note { font: 600 14px 'Segoe UI', Arial, sans-serif; fill: #4E7AC7; }
      .label { font: 700 16px 'Segoe UI', Arial, sans-serif; fill: #16193B; }
      .tiny { font: 600 14px 'Segoe UI', Arial, sans-serif; fill: #4E7AC7; }
      .node-label { font: 700 12px 'Segoe UI', Arial, sans-serif; fill: #16193B; }
      .node-small-label { font: 700 11px 'Segoe UI', Arial, sans-serif; fill: #16193B; }
      .flow-row-text { font: 600 14px 'Segoe UI', Arial, sans-serif; fill: #31466E; }
    </style>
  </defs>
  <rect x="0" y="0" width="1280" height="720" rx="28" fill="#FFFFFF"/>
  <rect x="30" y="26" width="1220" height="92" rx="20" fill="url(#canvas_header)"/>
  <text x="64" y="68" class="canvas-title">Residual Harmonic Network Structure</text>
  <text x="64" y="98" class="canvas-subtitle">Structured harmonic path, residual MLP path, and explicit additive merge</text>
  <g transform="translate(0,17.0)">
  <rect x="46" y="286" width="190" height="118" rx="18" fill="#FFFFFF" stroke="#ADD5F7" stroke-width="3"/>
  <path d="M64, 286 H218 Q236, 286 236, 304 V332 H46 V304 Q46, 286 64, 286 Z" fill="url(#card_header)"/>
  <line x1="46" y1="332" x2="236" y2="332" stroke="#ADD5F7" stroke-width="2"/>
  <text x="141" y="317" text-anchor="middle" class="card-title">Shared Input</text>
  <text x="141.0" y="372.0" text-anchor="middle" class="card-text">Angle and conditions</text>
  <rect x="302" y="174" width="226" height="188" rx="18" fill="#FFFFFF" stroke="#7FB2F0" stroke-width="3"/>
  <path d="M320, 174 H510 Q528, 174 528, 192 V220 H302 V192 Q302, 174 320, 174 Z" fill="url(#card_header)"/>
  <line x1="302" y1="220" x2="528" y2="220" stroke="#7FB2F0" stroke-width="2"/>
  <text x="415.0" y="205" text-anchor="middle" class="card-title">Structured Path</text>
  <rect x="326" y="252.0" width="178" height="18" rx="12" fill="#F7FBFF" stroke="#7FB2F0" stroke-width="1.2"/>
  <text x="415.0" y="266.0" text-anchor="middle" class="flow-row-text">Harmonic basis</text>
  <line x1="415.0" y1="273.0" x2="415.0" y2="277.0" stroke="#4E7AC7" stroke-width="2.2" stroke-linecap="round" marker-end="url(#arrow_head)"/>
  <rect x="326" y="282.0" width="178" height="18" rx="12" fill="#F7FBFF" stroke="#7FB2F0" stroke-width="1.2"/>
  <text x="415.0" y="296.0" text-anchor="middle" class="flow-row-text">Coefficient resolver</text>
  <line x1="415.0" y1="303.0" x2="415.0" y2="307.0" stroke="#4E7AC7" stroke-width="2.2" stroke-linecap="round" marker-end="url(#arrow_head)"/>
  <rect x="326" y="312.0" width="178" height="18" rx="12" fill="#F7FBFF" stroke="#7FB2F0" stroke-width="1.2"/>
  <text x="415.0" y="326.0" text-anchor="middle" class="flow-row-text">Structured output H</text>
  <rect x="302" y="414" width="226" height="188" rx="18" fill="#FFFFFF" stroke="#ADD5F7" stroke-width="3"/>
  <path d="M320, 414 H510 Q528, 414 528, 432 V460 H302 V432 Q302, 414 320, 414 Z" fill="url(#card_header)"/>
  <line x1="302" y1="460" x2="528" y2="460" stroke="#ADD5F7" stroke-width="2"/>
  <text x="415.0" y="445" text-anchor="middle" class="card-title">Residual Path</text>
  <rect x="326" y="492.0" width="178" height="18" rx="12" fill="#F7FBFF" stroke="#ADD5F7" stroke-width="1.2"/>
  <text x="415.0" y="506.0" text-anchor="middle" class="flow-row-text">Normalized input</text>
  <line x1="415.0" y1="513.0" x2="415.0" y2="517.0" stroke="#4E7AC7" stroke-width="2.2" stroke-linecap="round" marker-end="url(#arrow_head)"/>
  <rect x="326" y="522.0" width="178" height="18" rx="12" fill="#F7FBFF" stroke="#ADD5F7" stroke-width="1.2"/>
  <text x="415.0" y="536.0" text-anchor="middle" class="flow-row-text">Dense residual MLP</text>
  <line x1="415.0" y1="543.0" x2="415.0" y2="547.0" stroke="#4E7AC7" stroke-width="2.2" stroke-linecap="round" marker-end="url(#arrow_head)"/>
  <rect x="326" y="552.0" width="178" height="18" rx="12" fill="#F7FBFF" stroke="#ADD5F7" stroke-width="1.2"/>
  <text x="415.0" y="566.0" text-anchor="middle" class="flow-row-text">Residual output R</text>
  <path d="M236.0,322.0 L268.0,322.0 L268.0,268.0 L302.0,268.0" fill="none" stroke="#4E7AC7" stroke-width="2.8" stroke-linejoin="round" stroke-linecap="round" marker-end="url(#arrow_head)"/>
  <path d="M236.0,352.0 L268.0,352.0 L268.0,508.0 L302.0,508.0" fill="none" stroke="#4E7AC7" stroke-width="2.8" stroke-linejoin="round" stroke-linecap="round" marker-end="url(#arrow_head)"/>
  <circle cx="620" cy="423" r="15" fill="#F7FBFF" stroke="#ADD5F7" stroke-width="2"/>
  <text x="620" y="427" text-anchor="middle" class="node-label">z1</text>
  <circle cx="620" cy="481" r="15" fill="#F7FBFF" stroke="#ADD5F7" stroke-width="2"/>
  <text x="620" y="485" text-anchor="middle" class="node-label">z2</text>
  <circle cx="620" cy="539" r="15" fill="#F7FBFF" stroke="#ADD5F7" stroke-width="2"/>
  <text x="620" y="543" text-anchor="middle" class="node-label">z3</text>
  <circle cx="620" cy="597" r="15" fill="#F7FBFF" stroke="#ADD5F7" stroke-width="2"/>
  <text x="620" y="601" text-anchor="middle" class="node-label">z4</text>
  <circle cx="734" cy="452" r="15" fill="#F7FBFF" stroke="#ADD5F7" stroke-width="2"/>
  <text x="734" y="456" text-anchor="middle" class="node-label">r1</text>
  <circle cx="734" cy="510" r="15" fill="#F7FBFF" stroke="#ADD5F7" stroke-width="2"/>
  <text x="734" y="514" text-anchor="middle" class="node-label">r2</text>
  <circle cx="734" cy="568" r="15" fill="#F7FBFF" stroke="#ADD5F7" stroke-width="2"/>
  <text x="734" y="572" text-anchor="middle" class="node-label">r3</text>
  <circle cx="848" cy="510" r="15" fill="#F7FBFF" stroke="#ADD5F7" stroke-width="2"/>
  <text x="848" y="514" text-anchor="middle" class="node-label">R</text>
  <line x1="633.4" y1="416.3" x2="720.6" y2="458.7" stroke="#C8DCF8" stroke-width="1.4" stroke-linecap="round" marker-end="url(#arrow_head)"/>
  <line x1="635.0" y1="423.0" x2="720.6" y2="516.7" stroke="#C8DCF8" stroke-width="1.4" stroke-linecap="round" marker-end="url(#arrow_head)"/>
  <line x1="633.4" y1="429.7" x2="720.6" y2="574.7" stroke="#C8DCF8" stroke-width="1.4" stroke-linecap="round" marker-end="url(#arrow_head)"/>
  <line x1="633.4" y1="474.3" x2="719.2" y2="454.3" stroke="#C8DCF8" stroke-width="1.4" stroke-linecap="round" marker-end="url(#arrow_head)"/>
  <line x1="635.0" y1="481.0" x2="719.2" y2="512.3" stroke="#C8DCF8" stroke-width="1.4" stroke-linecap="round" marker-end="url(#arrow_head)"/>
  <line x1="633.4" y1="487.7" x2="719.2" y2="570.3" stroke="#C8DCF8" stroke-width="1.4" stroke-linecap="round" marker-end="url(#arrow_head)"/>
  <line x1="633.4" y1="532.3" x2="719.2" y2="449.7" stroke="#C8DCF8" stroke-width="1.4" stroke-linecap="round" marker-end="url(#arrow_head)"/>
  <line x1="635.0" y1="539.0" x2="719.2" y2="507.7" stroke="#C8DCF8" stroke-width="1.4" stroke-linecap="round" marker-end="url(#arrow_head)"/>
  <line x1="633.4" y1="545.7" x2="719.2" y2="565.7" stroke="#C8DCF8" stroke-width="1.4" stroke-linecap="round" marker-end="url(#arrow_head)"/>
  <line x1="633.4" y1="590.3" x2="720.6" y2="445.3" stroke="#C8DCF8" stroke-width="1.4" stroke-linecap="round" marker-end="url(#arrow_head)"/>
  <line x1="635.0" y1="597.0" x2="720.6" y2="503.3" stroke="#C8DCF8" stroke-width="1.4" stroke-linecap="round" marker-end="url(#arrow_head)"/>
  <line x1="633.4" y1="603.7" x2="720.6" y2="561.3" stroke="#C8DCF8" stroke-width="1.4" stroke-linecap="round" marker-end="url(#arrow_head)"/>
  <line x1="749.0" y1="452.0" x2="834.6" y2="516.7" stroke="#C8DCF8" stroke-width="1.4" stroke-linecap="round" marker-end="url(#arrow_head)"/>
  <line x1="749.0" y1="510.0" x2="833.0" y2="510.0" stroke="#C8DCF8" stroke-width="1.4" stroke-linecap="round" marker-end="url(#arrow_head)"/>
  <line x1="749.0" y1="568.0" x2="834.6" y2="503.3" stroke="#C8DCF8" stroke-width="1.4" stroke-linecap="round" marker-end="url(#arrow_head)"/>
  <rect x="620" y="192" width="192" height="104" rx="18" fill="#FFFFFF" stroke="#ADD5F7" stroke-width="3"/>
  <path d="M638, 192 H794 Q812, 192 812, 210 V238 H620 V210 Q620, 192 638, 192 Z" fill="url(#card_header)"/>
  <line x1="620" y1="238" x2="812" y2="238" stroke="#ADD5F7" stroke-width="2"/>
  <text x="716" y="223" text-anchor="middle" class="card-title">Structured Output</text>
  <text x="716.0" y="271.0" text-anchor="middle" class="card-text">H</text>
  <rect x="946" y="286" width="166" height="112" rx="18" fill="#FFFFFF" stroke="#ADD5F7" stroke-width="3"/>
  <path d="M964, 286 H1094 Q1112, 286 1112, 304 V332 H946 V304 Q946, 286 964, 286 Z" fill="url(#card_header)"/>
  <line x1="946" y1="332" x2="1112" y2="332" stroke="#ADD5F7" stroke-width="2"/>
  <text x="1029" y="317" text-anchor="middle" class="card-title">Add</text>
  <text x="1029.0" y="369.0" text-anchor="middle" class="card-text">H plus R</text>
  <rect x="1130" y="286" width="110" height="112" rx="18" fill="#FFFFFF" stroke="#ADD5F7" stroke-width="3"/>
  <path d="M1148, 286 H1222 Q1240, 286 1240, 304 V332 H1130 V304 Q1130, 286 1148, 286 Z" fill="url(#card_header)"/>
  <line x1="1130" y1="332" x2="1240" y2="332" stroke="#ADD5F7" stroke-width="2"/>
  <text x="1185" y="317" text-anchor="middle" class="card-title">TE</text>
  <text x="1185.0" y="369.0" text-anchor="middle" class="card-text">Output</text>
  <line x1="528.0" y1="268.0" x2="620.0" y2="244.0" stroke="#4E7AC7" stroke-width="3.0" stroke-linecap="round" marker-end="url(#arrow_head)"/>
  <path d="M812.0,244.0 L900.0,244.0 L900.0,322.0 L946.0,322.0" fill="none" stroke="#4E7AC7" stroke-width="2.8" stroke-linejoin="round" stroke-linecap="round" marker-end="url(#arrow_head)"/>
  <path d="M863.0,510.0 L900.0,510.0 L900.0,360.0 L946.0,360.0" fill="none" stroke="#4E7AC7" stroke-width="2.8" stroke-linejoin="round" stroke-linecap="round" marker-end="url(#arrow_head)"/>
  <line x1="1112.0" y1="342.0" x2="1130.0" y2="342.0" stroke="#4E7AC7" stroke-width="3.0" stroke-linecap="round" marker-end="url(#arrow_head)"/>
  <text x="612" y="624" class="tiny">Training can log H, R, and H + R separately for diagnostics.</text>
  </g>

</svg>
