<svg xmlns="http://www.w3.org/2000/svg" width="1280" height="720" viewBox="0 0 1280 720" role="img" aria-labelledby="title desc">
  <title id="title">Feedforward TE Architecture Diagram</title>
  <desc id="desc">Architecture-style diagram of a feedforward multilayer perceptron for transmission-error prediction.</desc>
  <defs>
    <linearGradient id="canvas_header" x1="0" y1="0" x2="1" y2="1">
      <stop offset="0%" stop-color="#35478C"/>
      <stop offset="100%" stop-color="#16193B"/>
    </linearGradient>
    <linearGradient id="card_header" x1="0" y1="0" x2="1" y2="1">
      <stop offset="0%" stop-color="#F6FAFF"/>
      <stop offset="100%" stop-color="#EEF5FF"/>
    </linearGradient>
    <marker id="arrow_head" markerWidth="8" markerHeight="8" refX="6.8" refY="4" orient="auto" markerUnits="strokeWidth">
      <path d="M0,0 L8,4 L0,8 Z" fill="#4E7AC7"/>
    </marker>
    <style>
      .canvas-title { font: 700 32px 'Segoe UI', Arial, sans-serif; fill: #ffffff; }
      .canvas-subtitle { font: 500 18px 'Segoe UI', Arial, sans-serif; fill: #dfeaff; }
      .card-title { font: 700 18px 'Segoe UI', Arial, sans-serif; fill: #16193B; }
      .card-text { font: 500 15px 'Segoe UI', Arial, sans-serif; fill: #31466E; }
      .card-note { font: 600 14px 'Segoe UI', Arial, sans-serif; fill: #4E7AC7; }
      .label { font: 700 16px 'Segoe UI', Arial, sans-serif; fill: #16193B; }
      .tiny { font: 600 14px 'Segoe UI', Arial, sans-serif; fill: #4E7AC7; }
      .node-label { font: 700 12px 'Segoe UI', Arial, sans-serif; fill: #16193B; }
      .node-small-label { font: 700 11px 'Segoe UI', Arial, sans-serif; fill: #16193B; }
      .flow-row-text { font: 600 14px 'Segoe UI', Arial, sans-serif; fill: #31466E; }
    </style>
  </defs>
  <rect x="0" y="0" width="1280" height="720" rx="28" fill="#FFFFFF"/>
  <rect x="30" y="26" width="1220" height="92" rx="20" fill="url(#canvas_header)"/>
  <text x="64" y="68" class="canvas-title">Feedforward Network Structure</text>
  <text x="64" y="98" class="canvas-subtitle">Dense point-wise network with explicit neuron connectivity</text>
  <g transform="translate(0,74.0)">
  <rect x="56" y="162" width="206" height="394" rx="18" fill="#FFFFFF" stroke="#ADD5F7" stroke-width="3"/>
  <path d="M74, 162 H244 Q262, 162 262, 180 V208 H56 V180 Q56, 162 74, 162 Z" fill="url(#card_header)"/>
  <line x1="56" y1="208" x2="262" y2="208" stroke="#ADD5F7" stroke-width="2"/>
  <text x="159" y="193" text-anchor="middle" class="card-title">Inputs</text>
  <text x="159.0" y="318.0" text-anchor="middle" class="card-text">Angle</text>
  <text x="159.0" y="340.0" text-anchor="middle" class="card-text">Speed</text>
  <text x="159.0" y="362.0" text-anchor="middle" class="card-text">Torque</text>
  <text x="159.0" y="384.0" text-anchor="middle" class="card-text">Temperature</text>
  <text x="159.0" y="406.0" text-anchor="middle" class="card-text">Direction</text>
  <text x="159.0" y="438.0" text-anchor="middle" class="card-note">Five normalized scalar</text>
  <text x="159.0" y="456.0" text-anchor="middle" class="card-note">features</text>
  <rect x="1048" y="295" width="160" height="128" rx="18" fill="#FFFFFF" stroke="#ADD5F7" stroke-width="3"/>
  <path d="M1066, 295 H1190 Q1208, 295 1208, 313 V341 H1048 V313 Q1048, 295 1066, 295 Z" fill="url(#card_header)"/>
  <line x1="1048" y1="341" x2="1208" y2="341" stroke="#ADD5F7" stroke-width="2"/>
  <text x="1128" y="326" text-anchor="middle" class="card-title">Output</text>
  <text x="1128.0" y="376.0" text-anchor="middle" class="card-text">Transmission</text>
  <text x="1128.0" y="396.0" text-anchor="middle" class="card-text">error</text>
  <text x="300" y="128" class="label">Example hidden layout: 5 to 4 to 4 to 3 to 1</text>
  <text x="300" y="152" class="tiny">The actual hidden width is configured by the training YAML.</text>
  <circle cx="392" cy="211" r="17" fill="#F7FBFF" stroke="#ADD5F7" stroke-width="2"/>
  <text x="392" y="215" text-anchor="middle" class="node-label">a</text>
  <circle cx="392" cy="285" r="17" fill="#F7FBFF" stroke="#ADD5F7" stroke-width="2"/>
  <text x="392" y="289" text-anchor="middle" class="node-label">s</text>
  <circle cx="392" cy="359" r="17" fill="#F7FBFF" stroke="#ADD5F7" stroke-width="2"/>
  <text x="392" y="363" text-anchor="middle" class="node-label">q</text>
  <circle cx="392" cy="433" r="17" fill="#F7FBFF" stroke="#ADD5F7" stroke-width="2"/>
  <text x="392" y="437" text-anchor="middle" class="node-label">t</text>
  <circle cx="392" cy="507" r="17" fill="#F7FBFF" stroke="#ADD5F7" stroke-width="2"/>
  <text x="392" y="511" text-anchor="middle" class="node-label">d</text>
  <circle cx="548" cy="248" r="17" fill="#F7FBFF" stroke="#ADD5F7" stroke-width="2"/>
  <text x="548" y="252" text-anchor="middle" class="node-label">h1</text>
  <circle cx="548" cy="322" r="17" fill="#F7FBFF" stroke="#ADD5F7" stroke-width="2"/>
  <text x="548" y="326" text-anchor="middle" class="node-label">h2</text>
  <circle cx="548" cy="396" r="17" fill="#F7FBFF" stroke="#ADD5F7" stroke-width="2"/>
  <text x="548" y="400" text-anchor="middle" class="node-label">h3</text>
  <circle cx="548" cy="470" r="17" fill="#F7FBFF" stroke="#ADD5F7" stroke-width="2"/>
  <text x="548" y="474" text-anchor="middle" class="node-label">h4</text>
  <circle cx="732" cy="248" r="17" fill="#F7FBFF" stroke="#ADD5F7" stroke-width="2"/>
  <text x="732" y="252" text-anchor="middle" class="node-label">h1</text>
  <circle cx="732" cy="322" r="17" fill="#F7FBFF" stroke="#ADD5F7" stroke-width="2"/>
  <text x="732" y="326" text-anchor="middle" class="node-label">h2</text>
  <circle cx="732" cy="396" r="17" fill="#F7FBFF" stroke="#ADD5F7" stroke-width="2"/>
  <text x="732" y="400" text-anchor="middle" class="node-label">h3</text>
  <circle cx="732" cy="470" r="17" fill="#F7FBFF" stroke="#ADD5F7" stroke-width="2"/>
  <text x="732" y="474" text-anchor="middle" class="node-label">h4</text>
  <circle cx="916" cy="285" r="17" fill="#F7FBFF" stroke="#ADD5F7" stroke-width="2"/>
  <text x="916" y="289" text-anchor="middle" class="node-label">h1</text>
  <circle cx="916" cy="359" r="17" fill="#F7FBFF" stroke="#ADD5F7" stroke-width="2"/>
  <text x="916" y="363" text-anchor="middle" class="node-label">h2</text>
  <circle cx="916" cy="433" r="17" fill="#F7FBFF" stroke="#ADD5F7" stroke-width="2"/>
  <text x="916" y="437" text-anchor="middle" class="node-label">h3</text>
  <line x1="407.2" y1="203.5" x2="532.8" y2="255.5" stroke="#C8DCF8" stroke-width="1.3" stroke-linecap="round"/>
  <line x1="408.8" y1="208.4" x2="532.8" y2="329.5" stroke="#C8DCF8" stroke-width="1.3" stroke-linecap="round"/>
  <line x1="408.8" y1="213.6" x2="532.8" y2="403.5" stroke="#C8DCF8" stroke-width="1.3" stroke-linecap="round"/>
  <line x1="407.2" y1="218.5" x2="532.8" y2="477.5" stroke="#C8DCF8" stroke-width="1.3" stroke-linecap="round"/>
  <line x1="407.2" y1="277.5" x2="531.4" y2="251.9" stroke="#C8DCF8" stroke-width="1.3" stroke-linecap="round"/>
  <line x1="408.8" y1="282.4" x2="531.4" y2="325.9" stroke="#C8DCF8" stroke-width="1.3" stroke-linecap="round"/>
  <line x1="408.8" y1="287.6" x2="531.4" y2="399.9" stroke="#C8DCF8" stroke-width="1.3" stroke-linecap="round"/>
  <line x1="407.2" y1="292.5" x2="531.4" y2="473.9" stroke="#C8DCF8" stroke-width="1.3" stroke-linecap="round"/>
  <line x1="407.2" y1="351.5" x2="531.0" y2="248.0" stroke="#C8DCF8" stroke-width="1.3" stroke-linecap="round"/>
  <line x1="408.8" y1="356.4" x2="531.0" y2="322.0" stroke="#C8DCF8" stroke-width="1.3" stroke-linecap="round"/>
  <line x1="408.8" y1="361.6" x2="531.0" y2="396.0" stroke="#C8DCF8" stroke-width="1.3" stroke-linecap="round"/>
  <line x1="407.2" y1="366.5" x2="531.0" y2="470.0" stroke="#C8DCF8" stroke-width="1.3" stroke-linecap="round"/>
  <line x1="407.2" y1="425.5" x2="531.4" y2="244.1" stroke="#C8DCF8" stroke-width="1.3" stroke-linecap="round"/>
  <line x1="408.8" y1="430.4" x2="531.4" y2="318.1" stroke="#C8DCF8" stroke-width="1.3" stroke-linecap="round"/>
  <line x1="408.8" y1="435.6" x2="531.4" y2="392.1" stroke="#C8DCF8" stroke-width="1.3" stroke-linecap="round"/>
  <line x1="407.2" y1="440.5" x2="531.4" y2="466.1" stroke="#C8DCF8" stroke-width="1.3" stroke-linecap="round"/>
  <line x1="407.2" y1="499.5" x2="532.8" y2="240.5" stroke="#C8DCF8" stroke-width="1.3" stroke-linecap="round"/>
  <line x1="408.8" y1="504.4" x2="532.8" y2="314.5" stroke="#C8DCF8" stroke-width="1.3" stroke-linecap="round"/>
  <line x1="408.8" y1="509.6" x2="532.8" y2="388.5" stroke="#C8DCF8" stroke-width="1.3" stroke-linecap="round"/>
  <line x1="407.2" y1="514.5" x2="532.8" y2="462.5" stroke="#C8DCF8" stroke-width="1.3" stroke-linecap="round"/>
  <line x1="563.2" y1="240.5" x2="716.8" y2="255.5" stroke="#C8DCF8" stroke-width="1.3" stroke-linecap="round"/>
  <line x1="564.8" y1="245.4" x2="716.8" y2="329.5" stroke="#C8DCF8" stroke-width="1.3" stroke-linecap="round"/>
  <line x1="564.8" y1="250.6" x2="716.8" y2="403.5" stroke="#C8DCF8" stroke-width="1.3" stroke-linecap="round"/>
  <line x1="563.2" y1="255.5" x2="716.8" y2="477.5" stroke="#C8DCF8" stroke-width="1.3" stroke-linecap="round"/>
  <line x1="563.2" y1="314.5" x2="715.2" y2="250.6" stroke="#C8DCF8" stroke-width="1.3" stroke-linecap="round"/>
  <line x1="564.8" y1="319.4" x2="715.2" y2="324.6" stroke="#C8DCF8" stroke-width="1.3" stroke-linecap="round"/>
  <line x1="564.8" y1="324.6" x2="715.2" y2="398.6" stroke="#C8DCF8" stroke-width="1.3" stroke-linecap="round"/>
  <line x1="563.2" y1="329.5" x2="715.2" y2="472.6" stroke="#C8DCF8" stroke-width="1.3" stroke-linecap="round"/>
  <line x1="563.2" y1="388.5" x2="715.2" y2="245.4" stroke="#C8DCF8" stroke-width="1.3" stroke-linecap="round"/>
  <line x1="564.8" y1="393.4" x2="715.2" y2="319.4" stroke="#C8DCF8" stroke-width="1.3" stroke-linecap="round"/>
  <line x1="564.8" y1="398.6" x2="715.2" y2="393.4" stroke="#C8DCF8" stroke-width="1.3" stroke-linecap="round"/>
  <line x1="563.2" y1="403.5" x2="715.2" y2="467.4" stroke="#C8DCF8" stroke-width="1.3" stroke-linecap="round"/>
  <line x1="563.2" y1="462.5" x2="716.8" y2="240.5" stroke="#C8DCF8" stroke-width="1.3" stroke-linecap="round"/>
  <line x1="564.8" y1="467.4" x2="716.8" y2="314.5" stroke="#C8DCF8" stroke-width="1.3" stroke-linecap="round"/>
  <line x1="564.8" y1="472.6" x2="716.8" y2="388.5" stroke="#C8DCF8" stroke-width="1.3" stroke-linecap="round"/>
  <line x1="563.2" y1="477.5" x2="716.8" y2="462.5" stroke="#C8DCF8" stroke-width="1.3" stroke-linecap="round"/>
  <line x1="747.2" y1="240.5" x2="900.8" y2="292.5" stroke="#C8DCF8" stroke-width="1.3" stroke-linecap="round"/>
  <line x1="749.0" y1="248.0" x2="900.8" y2="366.5" stroke="#C8DCF8" stroke-width="1.3" stroke-linecap="round"/>
  <line x1="747.2" y1="255.5" x2="900.8" y2="440.5" stroke="#C8DCF8" stroke-width="1.3" stroke-linecap="round"/>
  <line x1="747.2" y1="314.5" x2="899.2" y2="287.6" stroke="#C8DCF8" stroke-width="1.3" stroke-linecap="round"/>
  <line x1="749.0" y1="322.0" x2="899.2" y2="361.6" stroke="#C8DCF8" stroke-width="1.3" stroke-linecap="round"/>
  <line x1="747.2" y1="329.5" x2="899.2" y2="435.6" stroke="#C8DCF8" stroke-width="1.3" stroke-linecap="round"/>
  <line x1="747.2" y1="388.5" x2="899.2" y2="282.4" stroke="#C8DCF8" stroke-width="1.3" stroke-linecap="round"/>
  <line x1="749.0" y1="396.0" x2="899.2" y2="356.4" stroke="#C8DCF8" stroke-width="1.3" stroke-linecap="round"/>
  <line x1="747.2" y1="403.5" x2="899.2" y2="430.4" stroke="#C8DCF8" stroke-width="1.3" stroke-linecap="round"/>
  <line x1="747.2" y1="462.5" x2="900.8" y2="277.5" stroke="#C8DCF8" stroke-width="1.3" stroke-linecap="round"/>
  <line x1="749.0" y1="470.0" x2="900.8" y2="351.5" stroke="#C8DCF8" stroke-width="1.3" stroke-linecap="round"/>
  <line x1="747.2" y1="477.5" x2="900.8" y2="425.5" stroke="#C8DCF8" stroke-width="1.3" stroke-linecap="round"/>
  <line x1="270.0" y1="359.0" x2="363.0" y2="359.0" stroke="#4E7AC7" stroke-width="2.4" stroke-linecap="round" marker-end="url(#arrow_head)"/>
  <line x1="941.0" y1="359.0" x2="1036.0" y2="359.0" stroke="#4E7AC7" stroke-width="2.4" stroke-linecap="round" marker-end="url(#arrow_head)"/>
  </g>

</svg>
