<svg xmlns="http://www.w3.org/2000/svg" width="1280" height="720" viewBox="0 0 1280 720" role="img" aria-labelledby="title desc">
  <title id="title">Residual Harmonic Network TE Architecture Diagram</title>
  <desc id="desc">Architecture-style diagram of the residual harmonic network with structured and residual branches.</desc>
  <defs>
    <linearGradient id="canvas_header" x1="0" y1="0" x2="1" y2="1">
      <stop offset="0%" stop-color="#35478C"/>
      <stop offset="100%" stop-color="#16193B"/>
    </linearGradient>
    <linearGradient id="card_header" x1="0" y1="0" x2="1" y2="1">
      <stop offset="0%" stop-color="#F6FAFF"/>
      <stop offset="100%" stop-color="#EEF5FF"/>
    </linearGradient>
    <marker id="arrow_head" markerWidth="8" markerHeight="8" refX="6.8" refY="4" orient="auto" markerUnits="strokeWidth">
      <path d="M0,0 L8,4 L0,8 Z" fill="#4E7AC7"/>
    </marker>
    <style>
      .canvas-title { font: 700 32px 'Segoe UI', Arial, sans-serif; fill: #ffffff; }
      .canvas-subtitle { font: 500 18px 'Segoe UI', Arial, sans-serif; fill: #dfeaff; }
      .card-title { font: 700 18px 'Segoe UI', Arial, sans-serif; fill: #16193B; }
      .card-text { font: 500 15px 'Segoe UI', Arial, sans-serif; fill: #31466E; }
      .card-note { font: 600 14px 'Segoe UI', Arial, sans-serif; fill: #4E7AC7; }
      .label { font: 700 16px 'Segoe UI', Arial, sans-serif; fill: #16193B; }
      .tiny { font: 600 14px 'Segoe UI', Arial, sans-serif; fill: #4E7AC7; }
      .node-label { font: 700 12px 'Segoe UI', Arial, sans-serif; fill: #16193B; }
      .node-small-label { font: 700 11px 'Segoe UI', Arial, sans-serif; fill: #16193B; }
      .flow-row-text { font: 600 14px 'Segoe UI', Arial, sans-serif; fill: #31466E; }
    </style>
  </defs>
  <rect x="0" y="0" width="1280" height="720" rx="28" fill="#FFFFFF"/>
  <rect x="30" y="26" width="1220" height="92" rx="20" fill="url(#canvas_header)"/>
  <text x="64" y="68" class="canvas-title">Residual Harmonic Network Structure</text>
  <text x="64" y="98" class="canvas-subtitle">Structured harmonic path, residual MLP path, and explicit additive merge</text>
  <g transform="translate(0,47.0)">
  <rect x="46" y="301" width="190" height="118" rx="18" fill="#FFFFFF" stroke="#ADD5F7" stroke-width="3"/>
  <path d="M64, 301 H218 Q236, 301 236, 319 V347 H46 V319 Q46, 301 64, 301 Z" fill="url(#card_header)"/>
  <line x1="46" y1="347" x2="236" y2="347" stroke="#ADD5F7" stroke-width="2"/>
  <text x="141" y="332" text-anchor="middle" class="card-title">Shared Input</text>
  <text x="141.0" y="387.0" text-anchor="middle" class="card-text">Angle and conditions</text>
  <rect x="314" y="114" width="236" height="228" rx="18" fill="#FFFFFF" stroke="#7FB2F0" stroke-width="3"/>
  <path d="M332, 114 H532 Q550, 114 550, 132 V160 H314 V132 Q314, 114 332, 114 Z" fill="url(#card_header)"/>
  <line x1="314" y1="160" x2="550" y2="160" stroke="#7FB2F0" stroke-width="2"/>
  <text x="432.0" y="145" text-anchor="middle" class="card-title">Structured Path</text>
  <rect x="338" y="194.0" width="188" height="18" rx="12" fill="#F7FBFF" stroke="#7FB2F0" stroke-width="1.2"/>
  <text x="432.0" y="208.0" text-anchor="middle" class="flow-row-text">Harmonic basis</text>
  <line x1="432.0" y1="217.0" x2="432.0" y2="235.0" stroke="#4E7AC7" stroke-width="1.4" stroke-linecap="round" marker-end="url(#arrow_head)"/>
  <rect x="338" y="242.0" width="188" height="18" rx="12" fill="#F7FBFF" stroke="#7FB2F0" stroke-width="1.2"/>
  <text x="432.0" y="256.0" text-anchor="middle" class="flow-row-text">Coefficient resolver</text>
  <line x1="432.0" y1="265.0" x2="432.0" y2="283.0" stroke="#4E7AC7" stroke-width="1.4" stroke-linecap="round" marker-end="url(#arrow_head)"/>
  <rect x="338" y="290.0" width="188" height="18" rx="12" fill="#F7FBFF" stroke="#7FB2F0" stroke-width="1.2"/>
  <text x="432.0" y="304.0" text-anchor="middle" class="flow-row-text">Structured output H</text>
  <rect x="314" y="378" width="236" height="228" rx="18" fill="#FFFFFF" stroke="#ADD5F7" stroke-width="3"/>
  <path d="M332, 378 H532 Q550, 378 550, 396 V424 H314 V396 Q314, 378 332, 378 Z" fill="url(#card_header)"/>
  <line x1="314" y1="424" x2="550" y2="424" stroke="#ADD5F7" stroke-width="2"/>
  <text x="432.0" y="409" text-anchor="middle" class="card-title">Residual Path</text>
  <rect x="338" y="458.0" width="188" height="18" rx="12" fill="#F7FBFF" stroke="#ADD5F7" stroke-width="1.2"/>
  <text x="432.0" y="472.0" text-anchor="middle" class="flow-row-text">Normalized input</text>
  <line x1="432.0" y1="481.0" x2="432.0" y2="499.0" stroke="#4E7AC7" stroke-width="1.4" stroke-linecap="round" marker-end="url(#arrow_head)"/>
  <rect x="338" y="506.0" width="188" height="18" rx="12" fill="#F7FBFF" stroke="#ADD5F7" stroke-width="1.2"/>
  <text x="432.0" y="520.0" text-anchor="middle" class="flow-row-text">Dense residual MLP</text>
  <line x1="432.0" y1="529.0" x2="432.0" y2="547.0" stroke="#4E7AC7" stroke-width="1.4" stroke-linecap="round" marker-end="url(#arrow_head)"/>
  <rect x="338" y="554.0" width="188" height="18" rx="12" fill="#F7FBFF" stroke="#ADD5F7" stroke-width="1.2"/>
  <text x="432.0" y="568.0" text-anchor="middle" class="flow-row-text">Residual output R</text>
  <path d="M244.0,336.0 L273.0,336.0 L273.0,276.0 L302.0,276.0" fill="none" stroke="#4E7AC7" stroke-width="2.2" stroke-linejoin="round" stroke-linecap="round" marker-end="url(#arrow_head)"/>
  <path d="M244.0,384.0 L273.0,384.0 L273.0,444.0 L302.0,444.0" fill="none" stroke="#4E7AC7" stroke-width="2.2" stroke-linejoin="round" stroke-linecap="round" marker-end="url(#arrow_head)"/>
  <circle cx="620" cy="381" r="15" fill="#F7FBFF" stroke="#ADD5F7" stroke-width="2"/>
  <text x="620" y="385" text-anchor="middle" class="node-label">z1</text>
  <circle cx="620" cy="439" r="15" fill="#F7FBFF" stroke="#ADD5F7" stroke-width="2"/>
  <text x="620" y="443" text-anchor="middle" class="node-label">z2</text>
  <circle cx="620" cy="497" r="15" fill="#F7FBFF" stroke="#ADD5F7" stroke-width="2"/>
  <text x="620" y="501" text-anchor="middle" class="node-label">z3</text>
  <circle cx="620" cy="555" r="15" fill="#F7FBFF" stroke="#ADD5F7" stroke-width="2"/>
  <text x="620" y="559" text-anchor="middle" class="node-label">z4</text>
  <circle cx="716" cy="410" r="15" fill="#F7FBFF" stroke="#ADD5F7" stroke-width="2"/>
  <text x="716" y="414" text-anchor="middle" class="node-label">r1</text>
  <circle cx="716" cy="468" r="15" fill="#F7FBFF" stroke="#ADD5F7" stroke-width="2"/>
  <text x="716" y="472" text-anchor="middle" class="node-label">r2</text>
  <circle cx="716" cy="526" r="15" fill="#F7FBFF" stroke="#ADD5F7" stroke-width="2"/>
  <text x="716" y="530" text-anchor="middle" class="node-label">r3</text>
  <circle cx="812" cy="468" r="15" fill="#F7FBFF" stroke="#ADD5F7" stroke-width="2"/>
  <text x="812" y="472" text-anchor="middle" class="node-label">R</text>
  <line x1="633.4" y1="374.3" x2="702.6" y2="416.7" stroke="#C8DCF8" stroke-width="1.2" stroke-linecap="round"/>
  <line x1="635.0" y1="381.0" x2="702.6" y2="474.7" stroke="#C8DCF8" stroke-width="1.2" stroke-linecap="round"/>
  <line x1="633.4" y1="387.7" x2="702.6" y2="532.7" stroke="#C8DCF8" stroke-width="1.2" stroke-linecap="round"/>
  <line x1="633.4" y1="432.3" x2="701.2" y2="412.3" stroke="#C8DCF8" stroke-width="1.2" stroke-linecap="round"/>
  <line x1="635.0" y1="439.0" x2="701.2" y2="470.3" stroke="#C8DCF8" stroke-width="1.2" stroke-linecap="round"/>
  <line x1="633.4" y1="445.7" x2="701.2" y2="528.3" stroke="#C8DCF8" stroke-width="1.2" stroke-linecap="round"/>
  <line x1="633.4" y1="490.3" x2="701.2" y2="407.7" stroke="#C8DCF8" stroke-width="1.2" stroke-linecap="round"/>
  <line x1="635.0" y1="497.0" x2="701.2" y2="465.7" stroke="#C8DCF8" stroke-width="1.2" stroke-linecap="round"/>
  <line x1="633.4" y1="503.7" x2="701.2" y2="523.7" stroke="#C8DCF8" stroke-width="1.2" stroke-linecap="round"/>
  <line x1="633.4" y1="548.3" x2="702.6" y2="403.3" stroke="#C8DCF8" stroke-width="1.2" stroke-linecap="round"/>
  <line x1="635.0" y1="555.0" x2="702.6" y2="461.3" stroke="#C8DCF8" stroke-width="1.2" stroke-linecap="round"/>
  <line x1="633.4" y1="561.7" x2="702.6" y2="519.3" stroke="#C8DCF8" stroke-width="1.2" stroke-linecap="round"/>
  <line x1="731.0" y1="410.0" x2="798.6" y2="474.7" stroke="#C8DCF8" stroke-width="1.2" stroke-linecap="round"/>
  <line x1="731.0" y1="468.0" x2="797.0" y2="468.0" stroke="#C8DCF8" stroke-width="1.2" stroke-linecap="round"/>
  <line x1="731.0" y1="526.0" x2="798.6" y2="461.3" stroke="#C8DCF8" stroke-width="1.2" stroke-linecap="round"/>
  <rect x="642" y="200" width="180" height="104" rx="18" fill="#FFFFFF" stroke="#ADD5F7" stroke-width="3"/>
  <path d="M660, 200 H804 Q822, 200 822, 218 V246 H642 V218 Q642, 200 660, 200 Z" fill="url(#card_header)"/>
  <line x1="642" y1="246" x2="822" y2="246" stroke="#ADD5F7" stroke-width="2"/>
  <text x="732" y="231" text-anchor="middle" class="card-title">Structured Output</text>
  <text x="732.0" y="279.0" text-anchor="middle" class="card-text">H</text>
  <rect x="952" y="304" width="154" height="112" rx="18" fill="#FFFFFF" stroke="#ADD5F7" stroke-width="3"/>
  <path d="M970, 304 H1088 Q1106, 304 1106, 322 V350 H952 V322 Q952, 304 970, 304 Z" fill="url(#card_header)"/>
  <line x1="952" y1="350" x2="1106" y2="350" stroke="#ADD5F7" stroke-width="2"/>
  <text x="1029" y="335" text-anchor="middle" class="card-title">Add</text>
  <text x="1029.0" y="387.0" text-anchor="middle" class="card-text">H plus R</text>
  <rect x="1150" y="304" width="90" height="112" rx="18" fill="#FFFFFF" stroke="#ADD5F7" stroke-width="3"/>
  <path d="M1168, 304 H1222 Q1240, 304 1240, 322 V350 H1150 V322 Q1150, 304 1168, 304 Z" fill="url(#card_header)"/>
  <line x1="1150" y1="350" x2="1240" y2="350" stroke="#ADD5F7" stroke-width="2"/>
  <text x="1195" y="335" text-anchor="middle" class="card-title">TE</text>
  <text x="1195.0" y="387.0" text-anchor="middle" class="card-text">Output</text>
  <line x1="558.0" y1="252.0" x2="630.0" y2="252.0" stroke="#4E7AC7" stroke-width="2.2" stroke-linecap="round" marker-end="url(#arrow_head)"/>
  <path d="M830.0,252.0 L885.0,252.0 L885.0,340.0 L940.0,340.0" fill="none" stroke="#4E7AC7" stroke-width="2.2" stroke-linejoin="round" stroke-linecap="round" marker-end="url(#arrow_head)"/>
  <path d="M830.0,468.0 L885.0,468.0 L885.0,380.0 L940.0,380.0" fill="none" stroke="#4E7AC7" stroke-width="2.2" stroke-linejoin="round" stroke-linecap="round" marker-end="url(#arrow_head)"/>
  <line x1="1114.0" y1="360.0" x2="1138.0" y2="360.0" stroke="#4E7AC7" stroke-width="2.2" stroke-linecap="round" marker-end="url(#arrow_head)"/>
  <text x="612" y="624" class="tiny">Training can log H, R, and H + R separately for diagnostics.</text>
  </g>

</svg>
